<svg id="svg2" xmlns="http://www.w3.org/2000/svg" viewBox="0 0 240.5 360.5">
  <defs>
    <style>
      .cls-1, .cls-3 {
        fill: #fff;
      }

      .cls-1 {
        stroke: #000;
        stroke-width: 0.5px;
      }

      .cls-2 {
        fill: #f55;
      }
    </style>
  </defs>
  <title>Red 8 card</title>
  <g id="g6619">
    <rect id="rect2987-8-5-8" class="cls-1" x="0.25" y="0.25" width="240" height="360" rx="40" ry="40"/>
    <rect id="rect3757-26-33-9" class="cls-2" x="20.25" y="20.25" width="200" height="320" rx="20" ry="20"/>
    <path id="path3773-0-4-8-4-60-3-0" class="cls-3" d="M180.25,80.25a160,160,0,0,0-160,160,40,40,0,0,0,40,40,160,160,0,0,0,160-160A40,40,0,0,0,180.25,80.25Z"/>
    <path id="rect3163-52-9-8-1-1-2-7-3-6-4-6-1-8-8-5" class="cls-2" d="M120.25,120.25a30,30,0,0,0-30,30,29.65,29.65,0,0,0,6.13,18,40,40,0,1,0,47.75,0,29.88,29.88,0,0,0-23.88-48Zm0,20a10,10,0,1,1-10,10A10,10,0,0,1,120.25,140.25Zm-2,40a19.06,19.06,0,0,1,2,0,19,19,0,1,1-2,0Z"/>
    <path id="rect3163-52-9-8-1-1-2-7-3-6-4-6-1-8-8-2-1" class="cls-3" d="M50.25,30.25a15,15,0,0,0-15,15,14.83,14.83,0,0,0,3.06,9,20,20,0,1,0,23.88,0,14.83,14.83,0,0,0,3.06-9A15,15,0,0,0,50.25,30.25Zm0,10a5,5,0,1,1-5,5A5,5,0,0,1,50.25,40.25Zm-1,20a8.34,8.34,0,0,1,1,0,9.51,9.51,0,1,1-1,0Z"/>
    <path id="rect3163-52-9-8-1-1-2-7-3-6-4-6-1-8-8-2-1-1" class="cls-3" d="M190.25,330.25a15,15,0,0,1-15-15,14.83,14.83,0,0,1,3.06-9,20,20,0,1,1,23.88,0,14.83,14.83,0,0,1,3.06,9A15,15,0,0,1,190.25,330.25Zm0-10a5,5,0,1,0-5-5A5,5,0,0,0,190.25,320.25Zm-1-20a8.34,8.34,0,0,0,1,0,9.51,9.51,0,1,0-1,0Z"/>
  </g>
</svg>
