<svg id="svg2" xmlns="http://www.w3.org/2000/svg" viewBox="0 0 240.5 360.5">
  <defs>
    <style>
      .cls-1, .cls-3 {
        fill: #fff;
      }

      .cls-1 {
        stroke: #000;
        stroke-width: 0.5px;
      }

      .cls-2 {
        fill: #f55;
      }
    </style>
  </defs>
  <title>Red 9 card</title>
  <g id="g6627">
    <rect id="rect2987-8-5-81" class="cls-1" x="0.25" y="0.25" width="240" height="360" rx="40" ry="40"/>
    <rect id="rect3757-26-33-5" class="cls-2" x="20.25" y="20.25" width="200" height="320" rx="20" ry="20"/>
    <path id="path3773-0-4-8-4-60-3-86" class="cls-3" d="M180.25,80.25a160,160,0,0,0-160,160,40,40,0,0,0,40,40,160,160,0,0,0,160-160A40,40,0,0,0,180.25,80.25Z"/>
    <path id="path3962-5-8" class="cls-2" d="M120.25,120.25a40,40,0,1,0,20,74.63v5.37a19.89,19.89,0,0,1-37.75,8.88l-18,9a40,40,0,0,0,75.75-17.88v-40A40,40,0,0,0,120.25,120.25Zm0,20a20,20,0,1,1-20,20A20,20,0,0,1,120.25,140.25Zm-20,104v8h40v-8Z"/>
    <path id="path3962-5-6-2-1-9" class="cls-3" d="M50.25,90.25a20,20,0,0,0,20-20v-20a20,20,0,1,0-10,17.31v2.69a9.94,9.94,0,0,1-18.87,4.44l-9,4.5A19.92,19.92,0,0,0,50.25,90.25Zm0-30a10,10,0,1,1,10-10A10,10,0,0,1,50.25,60.25Z"/>
    <path id="path3962-5-6-2-1-8-7" class="cls-3" d="M190.25,270.25a20,20,0,0,0-20,20v20a20,20,0,1,0,10-17.31v-2.69a10,10,0,0,1,18.88-4.44l9-4.5A19.94,19.94,0,0,0,190.25,270.25Zm0,30a10,10,0,1,1-10,10A10,10,0,0,1,190.25,300.25Z"/>
  </g>
</svg>
