<svg id="svg2" xmlns="http://www.w3.org/2000/svg" viewBox="0 0 240.5 360.5">
  <defs>
    <style>
      .cls-1, .cls-3 {
        fill: #fff;
      }

      .cls-1 {
        stroke: #000;
        stroke-width: 0.5px;
      }

      .cls-2 {
        fill: #f55;
      }
    </style>
  </defs>
  <title>Red Skip card</title>
  <g id="g6635">
    <rect id="rect2987-8-5-81-5" class="cls-1" x="0.25" y="0.25" width="240" height="360" rx="40" ry="40"/>
    <rect id="rect3757-26-33-5-3" class="cls-2" x="20.25" y="20.25" width="200" height="320" rx="20" ry="20"/>
    <path id="path3773-0-4-8-4-60-3-86-2" class="cls-3" d="M180.25,80.25a160,160,0,0,0-160,160,40,40,0,0,0,40,40,160,160,0,0,0,160-160A40,40,0,0,0,180.25,80.25Z"/>
    <path id="path5897-6-5" class="cls-2" d="M120.38,120.25a60,60,0,1,0,42.37,17.62,59.9,59.9,0,0,0-42.37-17.62Zm-.13,20a40.08,40.08,0,0,1,20.25,5.5L85.75,200.5a40,40,0,0,1,34.5-60.25Zm34.5,19.63a40,40,0,0,1-54.87,54.75Z"/>
    <path id="path5897-6-8-2" class="cls-3" d="M60.31,30.25A30,30,0,1,0,81.5,39.06a29.94,29.94,0,0,0-21.19-8.81Zm-.06,10A20,20,0,0,1,70.37,43L43,70.37a20,20,0,0,1,3.13-24.31A19.82,19.82,0,0,1,60.25,40.25ZM77.5,50.06A20,20,0,0,1,50.06,77.43L77.5,50.06Z"/>
    <path id="path5897-6-8-5" class="cls-3" d="M180.31,270.25a30,30,0,1,0,21.19,8.81,29.94,29.94,0,0,0-21.19-8.81Zm-.06,10A20,20,0,0,1,190.37,283L163,310.37a20,20,0,0,1,3.13-24.31A19.82,19.82,0,0,1,180.25,280.25Zm17.25,9.81a20,20,0,0,1-27.44,27.37l27.44-27.37Z"/>
  </g>
</svg>
