<?xml version="1.0" encoding="utf-8"?>
<svg id="svg2" viewBox="0 0 240.5 360.5" xmlns="http://www.w3.org/2000/svg">
  <defs>
    <style>
      .cls-1, .cls-2, .cls-3 {
        fill: #fff;
      }

      .cls-1, .cls-3 {
        stroke: #000;
      }

      .cls-1 {
        stroke-width: 0.5px;
      }

      .cls-3 {
        stroke-width: 0.51px;
      }

      .cls-4 {
        fill: #f55;
      }

      .cls-5 {
        fill: #55f;
      }

      .cls-6 {
        fill: #fa0;
      }

      .cls-7 {
        fill: #5a5;
      }
    </style>
  </defs>
  <title>Wild Draw Four card</title>
  <g id="g6694">
    <rect id="rect2987-8-5-81-2-1" class="cls-1" x="0.25" y="0.25" width="240" height="360" rx="40" ry="40"/>
    <rect id="rect3757-26-33-5-9-9" x="20.25" y="20.25" width="200" height="320" rx="20" ry="20"/>
  </g>
  <path class="st0" d="M 101.459 133.876 C 120.665 123.677 141.34 121.563 158.248 125.515 C 196.751 134.612 199.783 163.557 179.292 193.422 C 169.919 207.114 156.043 220.255 139.319 228.525 C 111.844 242.125 85.562 242.86 68.288 232.385 C 50.92 221.908 46.785 204.265 52.941 185.519 C 59.282 166.038 77.016 146.006 101.459 133.876 Z" id="path4" style="clip-rule: evenodd; fill: rgb(237, 28, 36); fill-rule: evenodd;"/>
  <path class="st1" d="M 161.924 156.022 C 161.833 157.125 161.833 158.228 162.016 159.33 C 162.2 160.525 162.476 161.812 162.935 163.006 C 163.578 164.752 164.497 166.314 165.508 167.601 C 166.427 168.795 167.53 169.714 168.817 170.449 C 170.378 171.093 171.849 171.46 173.043 171.368 C 174.054 171.368 174.789 171.093 175.34 170.633 C 175.708 170.266 175.983 169.714 176.076 168.979 C 176.259 167.968 176.076 166.682 175.799 165.028 C 175.708 164.569 175.616 164.2 175.524 163.741 C 175.433 163.374 175.249 162.914 175.157 162.547 C 174.33 160.433 173.227 158.503 171.849 157.034 C 170.654 155.746 169.183 154.828 167.621 154.369 C 165.968 153.909 164.589 153.909 163.578 154.277 C 162.935 154.552 162.384 155.012 162.108 155.746 L 161.924 156.022 Z M 161.189 130.109 C 169.367 127.077 177.454 127.719 184.346 131.12 C 191.513 134.612 197.302 141.137 200.335 149.314 C 202.08 153.909 202.724 158.687 202.448 163.19 C 202.173 167.784 200.978 172.195 198.773 176.146 C 198.681 176.33 198.589 176.606 198.313 176.973 C 198.129 177.342 197.946 177.617 197.854 177.801 C 194.545 183.222 191.146 187.174 187.746 190.022 C 184.253 192.871 180.854 194.709 177.454 195.995 C 169.092 199.119 160.822 198.476 153.839 195.077 C 146.487 191.493 140.605 185.06 137.573 176.79 C 135.919 172.287 135.092 167.784 135.276 163.466 C 135.46 159.055 136.471 154.828 138.4 150.876 C 139.871 147.936 142.168 144.536 145.199 141.32 C 147.865 138.471 151.082 135.714 154.665 133.325 C 155.584 132.683 156.595 132.131 157.606 131.578 C 158.984 131.028 160.086 130.476 161.189 130.109 Z" id="path6" style="fill: rgb(255, 255, 255);"/>
  <path class="st1" d="M 122.962 145.179 L 136.93 139.941 C 138.216 139.482 139.594 140.126 140.054 141.411 C 140.054 141.504 140.146 141.504 140.146 141.596 L 159.995 194.617 C 160.178 194.892 160.27 195.26 160.27 195.628 C 160.363 196.362 160.086 197.098 159.536 197.557 L 153.011 204.082 C 152.735 204.357 152.46 204.542 152.092 204.633 L 140.605 208.86 C 139.871 209.135 139.043 209.044 138.4 208.584 L 125.443 199.947 L 127.925 206.471 C 128.108 206.838 128.292 207.298 128.292 207.757 C 128.292 208.401 128.017 209.044 127.557 209.411 L 121.032 215.936 C 120.757 216.211 120.482 216.395 120.206 216.487 L 106.146 221.724 C 104.86 222.184 103.482 221.541 103.022 220.255 L 82.99 166.682 C 82.622 165.671 82.898 164.569 83.725 163.925 L 90.065 157.584 C 90.341 157.309 90.617 157.125 90.984 157.034 L 103.206 152.531 C 103.941 152.255 104.768 152.347 105.412 152.806 L 117.357 160.617 L 115.151 154.736 C 114.785 153.817 115.06 152.806 115.704 152.163 L 122.136 145.639 C 122.411 145.455 122.686 145.271 122.962 145.179 Z" id="path8" style="fill: rgb(255, 255, 255);"/>
  <path class="st1" d="M 75.363 232.935 C 69.849 233.487 65.071 232.476 60.936 229.995 C 55.33 226.687 51.195 220.897 48.346 213.455 L 37.32 183.866 C 36.952 182.854 37.228 181.752 38.054 181.109 L 44.395 174.768 C 44.67 174.492 44.947 174.308 45.223 174.217 L 59.282 168.979 C 60.568 168.52 61.946 169.163 62.406 170.449 L 73.709 200.682 C 74.352 202.427 75.271 204.082 76.557 205.184 C 77.476 206.011 78.671 206.563 80.141 206.654 C 80.417 206.654 80.784 206.654 81.06 206.654 C 81.06 206.103 80.968 205.552 80.876 205.001 C 80.692 204.173 80.509 203.346 80.141 202.427 L 68.838 172.195 C 68.471 171.185 68.747 170.082 69.573 169.438 L 75.731 163.281 C 76.006 162.914 76.373 162.639 76.833 162.455 L 90.892 157.217 C 92.178 156.757 93.557 157.4 94.016 158.687 L 105.227 188.644 C 106.973 193.239 107.8 197.649 107.709 201.785 C 107.616 205.919 106.697 209.779 104.768 213.27 C 103.206 216.027 100.265 218.876 97.325 221.724 C 96.681 222.368 95.946 223.012 95.395 223.562 L 95.303 223.654 C 94.201 224.849 92.914 225.952 91.536 226.871 C 86.849 230.178 81.244 232.293 75.363 232.935 Z" id="path10" style="fill: rgb(255, 255, 255);"/>
  <polygon class="st2" points="139.779 206.563 120.573 193.79 125.719 207.757 125.719 207.757 125.811 207.757 119.287 214.189 105.227 219.519 85.195 165.946 91.72 159.422 104.033 154.919 122.136 166.773 117.357 154.001 123.789 147.476 137.756 142.239 157.881 195.811 151.356 202.335" id="polygon12" style="clip-rule: evenodd; fill-rule: evenodd;"/>
  <path class="st2" d="M 162.108 132.406 C 177.454 126.709 192.616 135.346 198.129 150.141 C 201.346 158.687 200.702 167.876 196.751 175.136 C 196.567 175.595 196.291 176.054 196.016 176.514 C 189.675 186.99 183.151 191.309 176.811 193.698 C 161.005 199.578 145.659 190.757 140.054 175.963 C 136.93 167.509 137.205 159.238 140.79 151.979 C 143.361 146.742 148.967 140.126 156.227 135.346 C 157.973 134.152 159.995 133.142 162.108 132.406 Z M 159.536 155.562 C 159.536 155.471 159.627 155.379 159.627 155.288 C 160.638 151.979 163.946 150.968 168.081 152.071 C 172.308 153.174 175.524 157.125 177.271 161.72 C 177.637 162.639 177.913 163.557 178.097 164.569 C 178.925 168.336 178.556 171.001 176.994 172.47 C 175.157 174.217 171.757 174.308 167.898 172.655 C 164.681 170.909 162.2 167.692 160.729 163.833 C 159.627 161.076 159.259 158.228 159.536 155.562 Z" id="path14" style="clip-rule: evenodd; fill-rule: evenodd;"/>
  <polygon class="st2" points="115.244 179.455 125.719 207.757 111.659 212.996 91.72 159.422 104.033 154.919 133.897 174.4 123.789 147.476 137.756 142.239 157.881 195.811 146.303 200.038" id="polygon16" style="clip-rule: evenodd; fill-rule: evenodd;"/>
  <polygon class="st3" points="111.476 174.768 123.422 206.654 112.763 210.606 94.108 160.525 103.757 156.941 137.573 179.086 126.179 148.58 136.654 144.627 155.491 194.709 146.487 198.017" id="polygon18" style="clip-rule: evenodd; fill: rgb(255, 255, 255); fill-rule: evenodd;"/>
  <polygon class="st4" points="127.833 149.314 135.919 146.282 153.746 193.973 146.67 196.547 108.903 171.46 121.767 205.919 113.589 208.952 95.762 161.352 103.574 158.411 140.146 182.303" id="polygon20" style="clip-rule: evenodd; fill: rgb(248, 218, 39); fill-rule: evenodd;"/>
  <path class="st2" d="M 162.108 132.406 C 177.454 126.709 192.616 135.346 198.129 150.141 C 203.643 164.935 197.854 181.477 182.6 187.174 C 167.254 192.871 152.092 184.233 146.578 169.438 C 140.973 154.552 146.763 138.103 162.108 132.406 Z M 167.162 145.915 C 159.444 148.763 158.065 156.665 160.729 163.833 C 163.395 170.909 169.551 175.963 177.362 173.114 C 185.081 170.174 186.46 162.363 183.794 155.196 C 181.038 148.12 174.881 143.066 167.162 145.915 Z" id="path22" style="clip-rule: evenodd; fill-rule: evenodd;"/>
  <path class="st3" d="M 162.751 134.152 C 177.087 128.822 191.238 136.909 196.475 150.876 C 201.621 164.752 196.291 180.19 181.957 185.611 C 167.621 190.941 153.47 182.762 148.233 168.887 C 143.087 154.919 148.325 139.482 162.751 134.152 Z M 166.519 144.168 C 157.789 147.384 155.951 156.39 158.984 164.476 C 162.016 172.563 169.183 178.076 178.006 174.86 C 186.735 171.551 188.573 162.639 185.541 154.644 C 182.416 146.558 175.249 140.952 166.519 144.168 Z" id="path24" style="clip-rule: evenodd; fill: rgb(255, 255, 255); fill-rule: evenodd;"/>
  <path class="st4" d="M 166.06 142.974 C 175.157 139.573 183.243 144.996 186.643 154.093 C 190.043 163.19 187.47 172.563 178.373 175.963 C 169.276 179.363 161.097 173.941 157.698 164.844 C 154.298 155.838 156.962 146.374 166.06 142.974 Z M 163.211 135.346 C 176.627 130.293 190.227 137.736 195.281 151.244 C 200.335 164.752 194.914 179.271 181.589 184.233 C 168.173 189.195 154.572 181.843 149.519 168.336 C 144.373 154.828 149.703 140.309 163.211 135.346 Z" id="path26" style="clip-rule: evenodd; fill: rgb(248, 218, 39); fill-rule: evenodd;"/>
  <path class="st2" d="M 73.893 230.638 C 62.865 231.281 55.055 224.206 50.736 212.536 L 39.709 182.947 L 46.142 176.423 L 60.201 171.185 L 71.503 201.416 C 72.974 205.276 75.638 208.675 80.141 208.86 C 81.428 208.952 83.173 208.768 83.541 207.114 C 83.632 205.184 83.266 203.254 82.53 201.416 L 71.228 171.185 L 77.752 164.66 L 91.72 159.422 L 102.93 189.379 C 106.146 198.017 106.146 205.735 102.655 211.984 C 101 214.925 97.05 218.417 93.741 221.724 C 88.687 227.054 81.06 230.27 73.893 230.638 Z" id="path28" style="clip-rule: evenodd; fill-rule: evenodd;"/>
  <path class="st2" d="M 92.363 220.805 L 92.455 220.989 L 89.515 222.093 C 89.422 222.093 89.33 222.184 89.33 222.184 C 89.238 222.184 89.146 222.276 89.055 222.276 L 86.114 223.379 L 86.022 223.195 C 71.963 226.871 62.314 219.519 57.26 206.011 L 46.233 176.423 L 60.293 171.185 L 71.595 201.416 C 73.066 205.276 75.731 208.675 80.233 208.86 C 81.52 208.952 82.898 208.675 84.092 208.217 C 85.379 207.757 86.573 207.022 87.492 206.103 C 90.708 203.071 90.525 198.752 89.055 194.892 L 77.66 164.66 L 91.72 159.422 L 102.93 189.379 C 107.984 202.978 105.503 214.465 92.363 220.805 Z" id="path30" style="clip-rule: evenodd; fill-rule: evenodd;"/>
  <path class="st3" d="M 89.974 219.886 L 88.779 220.346 C 88.687 220.346 88.596 220.438 88.503 220.438 C 88.411 220.438 88.319 220.531 88.227 220.531 L 87.033 220.989 C 73.066 225.4 63.784 218.693 58.915 205.461 L 48.531 177.617 L 59.098 173.666 L 69.757 202.152 C 71.503 206.746 74.812 210.606 80.049 210.789 C 81.611 210.882 83.173 210.606 84.643 210.054 C 86.114 209.503 87.584 208.675 88.687 207.573 C 92.455 203.989 92.455 198.936 90.708 194.341 L 80.049 165.854 L 90.617 161.904 L 101.184 190.114 C 106.146 203.346 103.482 214.098 89.974 219.886 Z" id="path32" style="clip-rule: evenodd; fill: rgb(255, 255, 255); fill-rule: evenodd;"/>
  <path class="st4" d="M 50.184 178.352 L 58.363 175.319 L 68.562 202.612 C 71.963 211.617 79.13 213.455 85.103 211.249 C 91.076 208.952 95.395 202.887 91.903 193.881 L 81.703 166.59 L 89.882 163.557 L 99.99 190.574 C 104.033 201.325 104.033 213.087 88.319 219.244 C 88.227 219.244 88.136 219.336 88.044 219.336 C 87.952 219.336 87.86 219.427 87.768 219.427 C 72.33 224.941 64.152 216.119 60.017 205.092 L 50.184 178.352 Z" id="path34" style="clip-rule: evenodd; fill: rgb(248, 218, 39); fill-rule: evenodd;"/>
  <path class="st5" d="M 119.471 154.369 L 124.524 149.222 L 127.373 156.85 L 122.32 161.995 L 119.471 154.369 Z M 123.239 164.569 L 128.292 159.422 L 129.395 162.271 L 124.341 167.417 L 123.239 164.569 Z" id="path36" style="clip-rule: evenodd; fill: rgb(88, 88, 90); fill-rule: evenodd;"/>
  <path class="st5" d="M 73.341 171.644 L 78.395 166.498 L 81.244 174.125 L 76.19 179.271 L 73.341 171.644 Z M 77.108 181.843 L 82.163 176.698 L 83.266 179.546 L 78.211 184.692 L 77.108 181.843 Z" id="path38" style="clip-rule: evenodd; fill: rgb(88, 88, 90); fill-rule: evenodd;"/>
  <path class="st5" d="M 48.163 200.59 L 53.218 195.443 L 56.066 203.071 L 51.011 208.217 L 48.163 200.59 Z M 52.022 210.789 L 57.077 205.644 L 57.26 206.011 C 57.627 206.838 57.904 207.665 58.27 208.492 L 53.125 213.638 L 52.022 210.789 Z" id="path40" style="clip-rule: evenodd; fill: rgb(88, 88, 90); fill-rule: evenodd;"/>
  <path class="st5" d="M 173.411 152.806 L 178.556 147.661 C 180.394 149.131 181.957 151.244 183.059 153.633 L 178.006 158.687 C 176.902 156.481 175.34 154.369 173.411 152.806 Z M 179.108 161.168 L 184.07 156.115 C 184.437 157.217 184.622 158.228 184.806 159.33 L 179.935 164.2 L 179.935 164.109 C 179.751 163.19 179.475 162.179 179.108 161.168 Z" id="path42" style="clip-rule: evenodd; fill: rgb(88, 88, 90); fill-rule: evenodd;"/>
</svg>