<svg id="svg2" xmlns="http://www.w3.org/2000/svg" viewBox="0 0 240.5 360.5">
  <defs>
    <style>
      .cls-1, .cls-2, .cls-3 {
        fill: #fff;
      }

      .cls-1, .cls-3 {
        stroke: #000;
      }

      .cls-1 {
        stroke-width: 0.5px;
      }

      .cls-3 {
        stroke-width: 0.51px;
      }

      .cls-4 {
        fill: #f55;
      }

      .cls-5 {
        fill: #55f;
      }

      .cls-6 {
        fill: #fa0;
      }

      .cls-7 {
        fill: #5a5;
      }
    </style>
  </defs>
  <title>Wild Draw Four card</title>
  <g id="g6694">
    <rect id="rect2987-8-5-81-2-1" class="cls-1" x="0.25" y="0.25" width="240" height="360" rx="40" ry="40"/>
    <rect id="rect3757-26-33-5-9-9" x="20.25" y="20.25" width="200" height="320" rx="20" ry="20"/>
    <path id="path3773-0-4-8-4-60-3-86-5-6" class="cls-2" d="M180.25,80.25a160,160,0,0,0-160,160,40,40,0,0,0,40,40,160,160,0,0,0,160-160A40,40,0,0,0,180.25,80.25Z"/>
    <path id="rect3980-7-6-2-9-5-60-5-3-1-5" class="cls-2" d="M79.85,30.25l-19.6,40v10h24v10h10v-10h6v-10h-6v-20h-10v20H70.65l19.6-40Z"/>
    <path id="rect5649-4" class="cls-2" d="M34.25,50.25v10h-10v10h10v10h10v-10h10v-10h-10v-10Z"/>
    <path id="rect3980-7-6-2-9-5-60-5-3-1-8-9" class="cls-2" d="M160.65,330.25l19.6-40v-10h-24v-10h-10v10h-6v10h6v20h10v-20h13.6l-19.6,40Z"/>
    <path id="rect5649-1-1" class="cls-2" d="M206.25,310.25v-10h10v-10h-10v-10h-10v10h-10v10h10v10Z"/>
    <g id="g6111-38-2">
      <path id="rect6095-2-9" class="cls-3" d="M83.11,130.25h40c5.52,0,8.84,4,7.42,9L110,211.22c-1.42,5-7,9-12.58,9h-40c-5.52,0-8.84-4-7.42-9l20.56-71.94C72,134.29,77.58,130.25,83.11,130.25Z"/>
      <path id="rect6097-5-7" class="cls-4" d="M90.25,140.25h20c5.52,0,8.84,4,7.42,9l-14.84,51.94c-1.43,5-7.06,9-12.58,9h-20c-5.52,0-8.85-4-7.42-9l14.84-51.94C79.09,144.29,84.73,140.25,90.25,140.25Z"/>
    </g>
    <g id="g6111-62-2-1">
      <path id="rect6095-14-0-3" class="cls-3" d="M123.11,100.25h40c5.52,0,8.84,4,7.42,9L150,181.22c-1.42,5-7.05,9-12.58,9h-40c-5.52,0-8.84-4-7.42-9l20.56-71.94C112,104.29,117.58,100.25,123.11,100.25Z"/>
      <path id="rect6097-6-3-2" class="cls-5" d="M130.25,110.25h20c5.52,0,8.84,4,7.42,9l-14.84,51.94c-1.43,5-7.06,9-12.58,9h-20c-5.52,0-8.85-4-7.42-9l14.84-51.94C119.09,114.29,124.73,110.25,130.25,110.25Z"/>
    </g>
    <g id="g6111-3-5">
      <path id="rect6095-0-3" class="cls-3" d="M113.11,160.25h40c5.52,0,8.84,4,7.42,9L140,241.22c-1.42,5-7.05,9-12.58,9h-40c-5.52,0-8.84-4-7.42-9l20.56-71.94C102,164.29,107.58,160.25,113.11,160.25Z"/>
      <path id="rect6097-7-4" class="cls-6" d="M120.25,170.25h20c5.52,0,8.84,4,7.42,9l-14.84,51.94c-1.43,5-7.06,9-12.58,9h-20c-5.52,0-8.85-4-7.42-9l14.84-51.94C109.09,174.29,114.73,170.25,120.25,170.25Z"/>
    </g>
    <g id="g6111-62-7-3">
      <path id="rect6095-14-8-2" class="cls-3" d="M153.11,130.25h40c5.52,0,8.84,4,7.42,9L180,211.22c-1.42,5-7.05,9-12.58,9h-40c-5.52,0-8.84-4-7.42-9l20.56-71.94C142,134.29,147.58,130.25,153.11,130.25Z"/>
      <path id="rect6097-6-7-1" class="cls-7" d="M160.25,140.25h20c5.52,0,8.84,4,7.42,9l-14.84,51.94c-1.43,5-7.06,9-12.58,9h-20c-5.52,0-8.85-4-7.42-9l14.84-51.94C149.09,144.29,154.73,140.25,160.25,140.25Z"/>
    </g>
  </g>
</svg>
